<?xml version="1.0" standalone="no"?>
<!DOCTYPE svg PUBLIC "-//W3C//DTD SVG 1.1//EN" "http://www.w3.org/Graphics/SVG/1.1/DTD/svg11.dtd"><svg t="1704725602114"
  class="icon" viewBox="0 0 1027 1024" version="1.1" xmlns="http://www.w3.org/2000/svg" p-id="2632"
  data-darkreader-inline-fill="" width="64.1875" height="64" xmlns:xlink="http://www.w3.org/1999/xlink">
  <path
    d="M962.56 170.666667l37.546667-34.133334c30.72-30.72 30.72-81.92 0-116.053333-30.72-30.72-85.333333-30.72-116.053334 0L843.093333 68.266667c-105.813333-58.026667-211.626667-68.266667-310.613333-68.266667-150.186667 0-232.106667 75.093333-232.106667 211.626667 0 153.6 150.186667 266.24 157.013334 273.066666 3.413333 3.413333 6.826667 3.413333 6.826666 3.413334L3.413333 996.693333c-6.826667 6.826667-6.826667 17.066667 0 23.893334 3.413333 3.413333 10.24 3.413333 13.653334 3.413333 3.413333 0 6.826667 0 10.24-3.413333L546.133333 549.546667c17.066667 13.653333 40.96 27.306667 64.853334 40.96 85.333333 54.613333 204.8 129.706667 204.8 201.386666 0 95.573333-85.333333 197.973333-327.68 197.973334-10.24 0-17.066667 6.826667-17.066667 17.066666s6.826667 17.066667 17.066667 17.066667c266.24 0 361.813333-126.293333 361.813333-232.106667 0-88.746667-122.88-167.253333-221.866667-228.693333-20.48-13.653333-40.96-27.306667-58.026666-37.546667l365.226666-331.093333C972.8 238.933333 989.866667 283.306667 989.866667 317.44c0 95.573333-37.546667 146.773333-112.64 153.6-10.24 0-17.066667 10.24-13.653334 20.48 0 10.24 6.826667 13.653333 17.066667 13.653333h3.413333c92.16-10.24 143.36-78.506667 143.36-187.733333C1024 273.066667 1003.52 225.28 962.56 170.666667z m-30.72-78.506667c6.826667 6.826667 6.826667 17.066667 0 23.893333l-10.24 10.24c-3.413333-3.413333-6.826667-6.826667-10.24-13.653333-6.826667-6.826667-17.066667-6.826667-23.893333 0l20.48-20.48c6.826667-6.826667 17.066667-6.826667 23.893333 0zM477.866667 453.973333s-143.36-109.226667-143.36-245.76C334.506667 64.853333 443.733333 34.133333 532.48 34.133333c92.16 0 191.146667 6.826667 286.72 61.44l-334.506667 372.053334c0-6.826667-3.413333-10.24-6.826666-13.653334z m413.013333-296.96c-3.413333 3.413333-6.826667 3.413333-13.653333 3.413334s-10.24 0-13.653334-3.413334c-6.826667-6.826667-6.826667-17.066667 0-23.893333l23.893334-20.48c-6.826667 6.826667-6.826667 17.066667 0 23.893333 3.413333 3.413333 6.826667 6.826667 10.24 13.653334l-6.826667 6.826666z"
    fill="#D9D9D9" p-id="2633"></path>
</svg>