<?xml version="1.0" standalone="no"?>
<!DOCTYPE svg PUBLIC "-//W3C//DTD SVG 1.1//EN" "http://www.w3.org/Graphics/SVG/1.1/DTD/svg11.dtd"><svg t="1704725634029"
  class="icon" viewBox="0 0 1024 1024" version="1.1" xmlns="http://www.w3.org/2000/svg" p-id="3638"
  data-darkreader-inline-fill="" width="64" height="64" xmlns:xlink="http://www.w3.org/1999/xlink">
  <path
    d="M609.194667 123.861333c-152.817778 0-288.896 88.192-351.616 226.232889-64.739556 8.078222-115.882667 60.572444-121.884445 125.923556C70.044444 517.304889 28.444444 591.971556 28.444444 670.805333c0 126.449778 102.087111 229.333333 227.555556 229.333334h355.555556c2.616889 0 6.471111-0.384 10.695111-2.076445C828.8 891.107556 995.555556 718.776889 995.555556 510.222222 995.555556 297.187556 822.229333 123.861333 609.194667 123.861333z m4.750222 717.496889c-2.517333 0-6.172444 0.355556-10.211556 1.891556H256c-94.108444 0-170.666667-77.354667-170.666667-172.444445 0-63.715556 35.953778-123.776 91.633778-152.931555a28.472889 28.472889 0 0 0 15.217778-26.126222l-0.184889-2.844445c0-45.752889 37.219556-82.972444 81.792-83.000889 0.711111 0.028444 2.289778 0.128 2.986667 0.113778a28.444444 28.444444 0 0 0 26.410666-17.891556c50.318222-125.966222 170.439111-207.374222 306.005334-207.374222C790.855111 180.750222 938.666667 328.561778 938.666667 510.222222c0 180.252444-145.834667 328.803556-324.721778 331.136z"
    fill="#D9D9D9" p-id="3639"></path>
  <path
    d="M878.094222 461.027556a14.208 14.208 0 0 0-15.630222-12.558223 14.392889 14.392889 0 0 0-12.672 15.829334c0.782222 7.253333 1.152 15.118222 1.166222 22.584889 0.014222 7.864889 6.371556 15.032889 14.222222 15.032888h0.042667c7.850667 0 14.208-7.168 14.193778-15.032888 0-8.433778-0.440889-17.664-1.322667-25.856zM850.247111 371.896889a237.696 237.696 0 0 0-208.355555-123.406222 14.222222 14.222222 0 1 0 0 28.444444 209.180444 209.180444 0 0 1 183.409777 108.657778 14.222222 14.222222 0 0 0 24.945778-13.696zM579.413333 414.008889c-12.899556-16.455111-31.089778-25.898667-49.863111-25.898667-18.432 0-35.456 8.760889-48.071111 24.832L373.76 554.524444c-13.781333 17.578667-17.379556 36.551111-9.856 52.024889 7.239111 14.862222 23.409778 23.395556 44.430222 23.395556H462.222222a14.222222 14.222222 0 1 0 0-28.444445h-53.902222c-9.557333 0-16.611556-2.744889-18.844444-7.395555-2.503111-5.148444 0.042667-13.610667 6.798222-22.215111l107.719111-141.582222c6.968889-8.888889 16.028444-13.781333 25.557333-13.781334 10.112 0 19.882667 5.333333 27.406222 14.919111l107.918223 140.017778c6.684444 8.504889 9.201778 17.109333 6.613333 22.442667-2.332444 4.807111-9.187556 7.552-18.787556 7.552H590.222222c-7.864889 0-4.195556 6.357333-4.195555 14.222222v57.244444c0 31.104-26.439111 55.452444-54.229334 55.452445-21.745778 0-42.709333-11.064889-50.588444-31.203556-2.858667-7.338667-10.467556-10.951111-17.806222-8.078222-7.296 2.858667-9.671111 11.107556-6.812445 18.446222 12.259556 31.331556 41.144889 49.308444 74.908445 49.308445 43.704889 0 82.958222-36.864 82.958222-83.911111v-43.008h38.229333c20.920889 0 37.091556-8.576 44.387556-23.537778 7.495111-15.459556 3.825778-35.100444-9.770667-52.380445L579.413333 414.008889z"
    fill="#D9D9D9" p-id="3640"></path>
  <path
    d="M469.333333 669.027556c3.697778 0 7.395556-1.578667 10.097778-4.138667 2.56-2.688 4.124444-6.385778 4.124445-10.083556s-1.564444-7.409778-4.124445-10.112c-5.404444-5.248-14.933333-5.248-20.195555 0-2.574222 2.702222-4.124444 6.414222-4.124445 10.112s1.550222 7.395556 4.124445 10.083556c2.688 2.56 6.4 4.138667 10.097777 4.138667z"
    fill="#D9D9D9" p-id="3641"></path>
</svg>